# xmcd
#
# Track frame offsets: 
#        150
#        17012
#        35722
#        56169
#        74529
#        90620
#        109727
#        140827
#        163260
#        179195
#        191595
#        210838
#
# Disc length: 3082 seconds
#
# Revision: 0
# Processed by: cddbd v1.5.2PL0 Copyright (c) Steve Scherf et al.
# Submitted via: ExactAudioCopy v0.95b4
#
DISCID=b70c080c
DTITLE=Aynsley Lister - Upside Down
DYEAR=2007
DGENRE=Blues
TTITLE0=Find My Way Home
TTITLE1=Getaway
TTITLE2=Always Tomorrow
TTITLE3=Ice I'm Upon
TTITLE4=Beautiful (Keiana's Song)
TTITLE5=Wherever I Am
TTITLE6=With Me Tonight
TTITLE7=Rain
TTITLE8=In The Morning
TTITLE9=Upside Down
TTITLE10=Disorderly Me
TTITLE11=Falling Down
EXTD=
EXTT0=
EXTT1=
EXTT2=
EXTT3=
EXTT4=
EXTT5=
EXTT6=
EXTT7=
EXTT8=
EXTT9=
EXTT10=
EXTT11=
PLAYORDER=
